<svg width="53" height="48" viewBox="0 0 53 48" fill="none" xmlns="http://www.w3.org/2000/svg">
<path d="M30.9501 2.79182C30.4766 1.94521 29.786 1.24019 28.9493 0.749451C28.1126 0.258708 27.1601 0 26.1901 0C25.2202 0 24.2677 0.258708 23.431 0.749451C22.5943 1.24019 21.9037 1.94521 21.4302 2.79182L0.693462 39.885C0.2296 40.7147 -0.00935805 41.6512 0.000280449 42.6017C0.00991895 43.5522 0.267818 44.4837 0.74841 45.3037C1.229 46.1238 1.9156 46.8041 2.74012 47.277C3.56465 47.75 4.49847 47.9992 5.449 48H46.9138C47.8647 48 48.7991 47.7513 49.6242 47.2786C50.4494 46.806 51.1366 46.1258 51.6177 45.3056C52.0988 44.4854 52.3571 43.5536 52.3669 42.6028C52.3767 41.6519 52.1378 40.715 51.6737 39.885L30.9501 2.79182Z" fill="url(#paint0_linear_220_10223)"/>
<path d="M29.4581 36.0022C29.4581 36.8701 29.1134 37.7024 28.4997 38.316C27.8861 38.9297 27.0538 39.2744 26.1859 39.2744C25.3181 39.2744 24.4858 38.9297 23.8722 38.316C23.2585 37.7024 22.9138 36.8701 22.9138 36.0022C22.9138 35.1344 23.2585 34.3021 23.8722 33.6885C24.4858 33.0748 25.3181 32.7301 26.1859 32.7301C27.0538 32.7301 27.8861 33.0748 28.4997 33.6885C29.1134 34.3021 29.4581 35.1344 29.4581 36.0022ZM24.0045 26.1858V15.2785C24.0045 14.7 24.2343 14.1451 24.6434 13.736C25.0525 13.3269 25.6074 13.0971 26.1859 13.0971C26.7645 13.0971 27.3194 13.3269 27.7285 13.736C28.1376 14.1451 28.3674 14.7 28.3674 15.2785V26.1858C28.3674 26.7643 28.1376 27.3192 27.7285 27.7283C27.3194 28.1374 26.7645 28.3672 26.1859 28.3672C25.6074 28.3672 25.0525 28.1374 24.6434 27.7283C24.2343 27.3192 24.0045 26.7643 24.0045 26.1858Z" fill="url(#paint1_linear_220_10223)"/>
<defs>
<linearGradient id="paint0_linear_220_10223" x1="8.17581" y1="-7.50022" x2="38.0746" y2="54.6534" gradientUnits="userSpaceOnUse">
<stop stop-color="#FFCD0F"/>
<stop offset="1" stop-color="#FE8401"/>
</linearGradient>
<linearGradient id="paint1_linear_220_10223" x1="17.4602" y1="13.0971" x2="28.2191" y2="41.7831" gradientUnits="userSpaceOnUse">
<stop stop-color="#4A4A4A"/>
<stop offset="1" stop-color="#212121"/>
</linearGradient>
</defs>
</svg>
