<svg width="97" height="97" viewBox="0 0 97 97" fill="none" xmlns="http://www.w3.org/2000/svg">
<path fill-rule="evenodd" clip-rule="evenodd" d="M7.59833 7.5985C0.583332 14.6231 0.583332 25.9122 0.583332 48.5002C0.583332 71.0881 0.583332 82.382 7.59833 89.397C14.6229 96.4168 25.9121 96.4168 48.5 96.4168C71.0879 96.4168 82.3819 96.4168 89.3969 89.397C96.4167 82.3868 96.4167 71.0881 96.4167 48.5002C96.4167 25.9122 96.4167 14.6183 89.3969 7.5985C82.3867 0.583496 71.0879 0.583496 48.5 0.583496C25.9121 0.583496 14.6181 0.583496 7.59833 7.5985ZM31.2356 74.6004C31.517 74.9798 31.8704 75.3 32.2757 75.5426C32.6809 75.7853 33.13 75.9458 33.5973 76.0147C34.0646 76.0837 34.5409 76.0599 34.9989 75.9447C35.457 75.8294 35.8879 75.625 36.2669 75.3431C39.7979 72.6991 44.0888 71.2671 48.5 71.2606C52.9112 71.2671 57.2021 72.6991 60.7331 75.3431C61.111 75.6371 61.5438 75.8527 62.0061 75.9771C62.4684 76.1016 62.9509 76.1324 63.4253 76.0677C63.8997 76.0031 64.3564 75.8444 64.7686 75.6008C65.1807 75.3572 65.5401 75.0337 65.8255 74.6493C66.1109 74.2649 66.3166 73.8274 66.4306 73.3624C66.5446 72.8974 66.5645 72.4143 66.4892 71.9415C66.4138 71.4687 66.2448 71.0157 65.992 70.6091C65.7391 70.2025 65.4076 69.8506 65.0169 69.5739C60.2472 66.0096 54.4543 64.0803 48.5 64.0731C42.5457 64.0803 36.7528 66.0096 31.9831 69.5739C31.2175 70.1414 30.7087 70.9897 30.5685 71.9324C30.4284 72.875 30.6683 73.8347 31.2356 74.6004ZM67.6667 41.3127C67.6667 45.2802 65.52 48.5002 62.875 48.5002C60.23 48.5002 58.0833 45.2802 58.0833 41.3127C58.0833 37.3452 60.23 34.1252 62.875 34.1252C65.52 34.1252 67.6667 37.3452 67.6667 41.3127ZM34.125 48.5002C36.77 48.5002 38.9167 45.2802 38.9167 41.3127C38.9167 37.3452 36.77 34.1252 34.125 34.1252C31.48 34.1252 29.3333 37.3452 29.3333 41.3127C29.3333 45.2802 31.48 48.5002 34.125 48.5002Z" fill="url(#paint0_linear_220_3140)" fill-opacity="0.8"/>
<defs>
<linearGradient id="paint0_linear_220_3140" x1="0.583332" y1="48.5002" x2="96.4167" y2="48.5002" gradientUnits="userSpaceOnUse">
<stop stop-color="#B28EF8"/>
<stop offset="1" stop-color="#F476E5"/>
</linearGradient>
</defs>
</svg>
