<svg width="112" height="113" viewBox="0 0 112 113" fill="none" xmlns="http://www.w3.org/2000/svg">
<path d="M55.7031 0.796875C24.9316 0.796875 0 25.7285 0 56.5C0 76.7373 10.8262 94.3916 26.9531 104.14V63.6875C26.9531 61.7109 28.5703 60.0938 30.5469 60.0938C32.5234 60.0938 34.1406 61.7109 34.1406 63.6875V107.868C40.7666 110.653 48.0664 112.203 55.7031 112.203C63.3398 112.203 70.6396 110.653 77.2656 107.868V63.6875C77.2656 61.7109 78.8828 60.0938 80.8594 60.0938C82.8359 60.0938 84.4531 61.7109 84.4531 63.6875V104.14C100.58 94.3916 111.406 76.7148 111.406 56.5C111.406 25.7285 86.4746 0.796875 55.7031 0.796875ZM40.9912 49.4248C37.667 46.46 30.6143 46.46 27.29 49.4248L25.1562 51.334C24.3027 52.0752 23.0674 52.2324 22.0791 51.6934C21.0908 51.1543 20.5293 50.0312 20.709 48.9082C21.6074 43.248 28.3906 39.4521 34.1631 39.4521C39.9355 39.4521 46.7188 43.248 47.6172 48.9082C47.7969 50.0312 47.2354 51.1543 46.2471 51.6934C44.9443 52.3896 43.7314 51.8506 43.1699 51.334L40.9912 49.4248ZM55.7031 92.4375C49.751 92.4375 44.9219 85.9912 44.9219 78.0625C44.9219 70.1338 49.751 63.6875 55.7031 63.6875C61.6553 63.6875 66.4844 70.1338 66.4844 78.0625C66.4844 85.9912 61.6553 92.4375 55.7031 92.4375ZM89.3496 51.6709C88.0469 52.3672 86.834 51.8281 86.2725 51.3115L84.1387 49.4023C80.8145 46.4375 73.7617 46.4375 70.4375 49.4023L68.2812 51.334C67.4277 52.0752 66.1924 52.2324 65.2041 51.6934C64.2158 51.1543 63.6543 50.0312 63.834 48.9082C64.7324 43.248 71.5156 39.4521 77.2881 39.4521C83.0605 39.4521 89.8438 43.248 90.7422 48.9082C90.877 50.0088 90.3379 51.1318 89.3496 51.6709Z" fill="url(#paint0_linear_220_3158)" fill-opacity="0.8"/>
<defs>
<linearGradient id="paint0_linear_220_3158" x1="0" y1="56.5" x2="111.406" y2="56.5" gradientUnits="userSpaceOnUse">
<stop stop-color="#B28EF8"/>
<stop offset="1" stop-color="#F476E5"/>
</linearGradient>
</defs>
</svg>
